# xmcd CD database file
#
# Track frame offsets:
#	150
#	21076
#	42069
#	59242
#	86886
#	99616
#	113378
#	124516
#	145481
#	157403
#	173248
#	188627
#
# Disc length: 2729 seconds
#
# Revision: 0
# Processed by: cddbd v1.5.2PL0 Copyright (c) Steve Scherf et al.
# Submitted via: CDex 1.51
#
DISCID=a60aa70c
DTITLE=Zarifa - Nature Girl
DYEAR=2006
DGENRE=Jazz
TTITLE0=When i fall in love
TTITLE1=I should care
TTITLE2=There's no getting over your
TTITLE3=This Masquerade
TTITLE4=Just one of those things
TTITLE5=Just friends
TTITLE6=It's magc
TTITLE7=What a difference a day makes
TTITLE8=You've changed
TTITLE9=Sunny
TTITLE10=Nature boy
TTITLE11=Smile
EXTD=YEAR: 2006
EXTT0=
EXTT1=
EXTT2=
EXTT3=
EXTT4=
EXTT5=
EXTT6=
EXTT7=
EXTT8=
EXTT9=
EXTT10=
EXTT11=
PLAYORDER=
